<svg id="レイヤー_1" data-name="レイヤー 1" xmlns="http://www.w3.org/2000/svg" viewBox="0 0 207.22 51.2"><title>about</title><path d="M41,40.9H14.62L10.3,50.4H0L22.61,0H33L55.59,50.4H45.22ZM27.79,10.58,18.43,32H37.16Z"/><path d="M67.25.07V19.73C69.34,16.06,75.17,14,78.91,14,89.28,14,97,20.38,97,32.62,97,44.28,89.14,51.2,78.7,51.2c-4.32,0-8.71-1.44-11.45-5.69l-.58,4.89H58.46V.07Zm.58,32.55A10.06,10.06,0,0,0,78.12,43.06c5.62,0,10.08-4.25,10.08-10.44,0-6.41-4.46-10.37-10.08-10.37A10.13,10.13,0,0,0,67.83,32.62Z"/><path d="M137.31,32.69c0,10.23-7,18.51-18.51,18.51s-18.43-8.28-18.43-18.51,7-18.5,18.36-18.5S137.31,22.54,137.31,32.69Zm-28.16,0c0,5.4,3.24,10.44,9.65,10.44s9.65-5,9.65-10.44-3.74-10.51-9.65-10.51C112.46,22.18,109.15,27.36,109.15,32.69Z"/><path d="M149.47,14.91V33.48c0,5.4,2.95,9.51,8.57,9.51,5.4,0,9.07-4.54,9.07-9.94V14.91h8.72V50.48H168l-.58-4.83c-3.67,3.6-7.06,5.33-12,5.33-8.5,0-14.69-6.41-14.69-17.43V14.91Z"/><path d="M196,4.9V15h9.8v7.56h-9.87V37.88c0,3.38,1.87,5,4.61,5a10.17,10.17,0,0,0,4.25-1.08l2.45,7.48a19.77,19.77,0,0,1-7.28,1.52c-7.7.28-12.74-4.11-12.74-13V22.54h-6.62V15h6.62V5.83Z"/></svg>