<svg id="レイヤー_1" data-name="レイヤー 1" xmlns="http://www.w3.org/2000/svg" viewBox="0 0 133.71 72.58"><title>Blog</title><path d="M41.26,14.62a10.25,10.25,0,0,1-6.55,9.72c5.9,1.8,8.06,8.06,8.06,11.23,0,11.23-8.42,14.83-18.86,14.83H0V0H23.91C33.84,0,41.26,4.46,41.26,14.62ZM9.36,20.23H23.91c6,0,7.92-2.52,7.92-5.4,0-2.3-1.88-6.19-7.92-6.19H9.36Zm0,21.32H23.91c3.88,0,9.43-1.3,9.43-6,0-4.54-5.55-6.91-9.43-6.91H9.36Z"/><path d="M54.65.07V50.4H45.94V.07Z"/><path d="M94.75,32.69c0,10.23-7,18.51-18.5,18.51S57.82,42.92,57.82,32.69s7.05-18.5,18.36-18.5S94.75,22.54,94.75,32.69Zm-28.15,0c0,5.4,3.24,10.44,9.65,10.44s9.65-5,9.65-10.44-3.75-10.51-9.65-10.51C69.91,22.18,66.6,27.36,66.6,32.69Z"/><path d="M127.23,11.3l6.48,4.9-4,5a15.17,15.17,0,0,1,3.74,10.51c0,4.4-1.66,10.59-7.49,13.25,5.91,3,7.35,7.2,7.35,11.74,0,9.79-7.49,15.84-17.79,15.84s-18-6.26-18-15.84h8.71c0,4.61,4.25,7.63,9.29,7.63s9-2.73,9-7.63-4.61-7.13-9-7.13c-11.09,0-18-6.77-18-17.86s8.06-18,18-18a14.13,14.13,0,0,1,8.14,2Zm-21,20.45c0,6.2,4.18,9.87,9.29,9.87s9.22-3.74,9.22-9.87-4.18-10-9.22-10S106.27,25.56,106.27,31.75Z"/></svg>