<svg id="レイヤー_1" data-name="レイヤー 1" xmlns="http://www.w3.org/2000/svg" viewBox="0 0 246.96 52.56"><title>Contact</title><path d="M45.87,45.08a26.58,26.58,0,0,1-19.16,7.48C8,52.56.07,39.68,0,26.57S8.5,0,26.71,0A26,26,0,0,1,45.22,7.7l-6.34,6.13A17.27,17.27,0,0,0,26.71,9.07c-12.16,0-17.42,9.08-17.35,17.5s4.9,17.07,17.35,17.07a18.53,18.53,0,0,0,12.68-5.12Z"/><path d="M82.15,33.7c0,10.22-7,18.5-18.5,18.5S45.22,43.92,45.22,33.7s7.05-18.51,18.36-18.51S82.15,23.55,82.15,33.7ZM54,33.7c0,5.4,3.24,10.44,9.65,10.44s9.65-5,9.65-10.44-3.75-10.51-9.65-10.51C57.31,23.19,54,28.37,54,33.7Z"/><path d="M110,51.41V32.83c0-5.4-3-9.5-8.57-9.5-5.4,0-9.07,4.54-9.07,9.94V51.41H83.66V15.84h7.85l.58,4.83c3.6-3.53,7.2-5.33,11.66-5.33,8.35,0,15,6.26,15,17.42V51.41Z"/><path d="M134.42,5.9V16h9.8v7.56h-9.87V38.88c0,3.39,1.87,5,4.61,5a10,10,0,0,0,4.25-1.08l2.45,7.49a19.56,19.56,0,0,1-7.28,1.51c-7.7.29-12.74-4.1-12.74-13V23.55H119V16h6.63V6.84Z"/><path d="M176,15.91h8.42v35.5h-8.28l-.43-5.18c-2,4.17-7.56,6.19-11.52,6.26-10.51.07-18.29-6.41-18.29-18.86,0-12.24,8.14-18.65,18.51-18.58,4.75,0,9.29,2.23,11.3,5.76ZM154.73,33.63c0,6.77,4.68,10.8,10.51,10.8,13.82,0,13.82-21.53,0-21.53C159.41,22.9,154.73,26.86,154.73,33.63Z"/><path d="M220.89,46.88a18.25,18.25,0,0,1-13.68,5.61c-10.29,0-18.86-6.19-18.86-18.79s8.57-18.79,18.86-18.79A16.88,16.88,0,0,1,220,20.16L214.49,26a10.79,10.79,0,0,0-7.13-2.8c-5.91,0-10.23,4.32-10.23,10.51,0,6.77,4.61,10.37,10.08,10.37a10.68,10.68,0,0,0,7.78-3Z"/><path d="M235.73,5.9V16h9.79v7.56h-9.87V38.88c0,3.39,1.87,5,4.61,5a10,10,0,0,0,4.25-1.08L247,50.33a19.55,19.55,0,0,1-7.27,1.51c-7.71.29-12.75-4.1-12.75-13V23.55h-6.62V16h6.62V6.84Z"/></svg>