<svg id="レイヤー_1" data-name="レイヤー 1" xmlns="http://www.w3.org/2000/svg" viewBox="0 0 597.02 73.59"><title>fe</title><path d="M8.5,34.77h29v3.68H8.5V61.27H4.61V10.79H38.52v3.89H8.5Z" transform="translate(-4.61 -10.79)"/><path d="M46.87,25.63,47,32c2.23-4.82,7.27-6.69,11.81-6.69a13.92,13.92,0,0,1,7.63,2.09l-1.59,2.88a11.36,11.36,0,0,0-6-1.66A11.81,11.81,0,0,0,47.09,40.46V61.2H43.56V25.63Z" transform="translate(-4.61 -10.79)"/><path d="M66.89,43.41A17.88,17.88,0,0,1,85,25.05c10,0,18.94,6.12,17.57,20h-32c.72,8.35,7.13,13.18,14.47,13.18,4.68,0,10.15-1.87,12.82-5.4l2.52,2C96.84,59.4,90.65,61.7,85,61.7,75,61.7,66.89,54.72,66.89,43.41ZM99.36,42c-.07-8.78-5.83-13.68-14.4-13.68-7.34,0-13.68,5-14.47,13.68Z" transform="translate(-4.61 -10.79)"/><path d="M106.78,43.41a17.88,17.88,0,0,1,18.07-18.36c10,0,18.94,6.12,17.57,20h-32c.72,8.35,7.12,13.18,14.47,13.18,4.68,0,10.15-1.87,12.82-5.4l2.52,2c-3.46,4.54-9.65,6.84-15.34,6.84C114.84,61.7,106.78,54.72,106.78,43.41ZM139.25,42c-.07-8.78-5.83-13.68-14.4-13.68-7.35,0-13.68,5-14.47,13.68Z" transform="translate(-4.61 -10.79)"/><path d="M150.55,25.63,150.7,32c2.23-4.82,7.27-6.69,11.8-6.69a13.93,13.93,0,0,1,7.64,2.09l-1.59,2.88a11.37,11.37,0,0,0-6.05-1.66,11.81,11.81,0,0,0-11.73,11.88V61.2h-3.53V25.63Z" transform="translate(-4.61 -10.79)"/><path d="M205.35,25.63V61.2h-3.53V53.64a16.66,16.66,0,0,1-14.55,8.14c-9.93,0-18.07-7.49-18.07-18.37s8.14-18.21,18.07-18.21c5.76,0,11.59,2.66,14.55,8.2V25.63ZM172.73,43.41c0,8.93,6.48,14.91,14.54,14.91,19.8,0,19.8-29.74,0-29.74C179.21,28.58,172.73,34.48,172.73,43.41Z" transform="translate(-4.61 -10.79)"/><path d="M215.49,25.63V32c2.74-4.89,7.71-6.91,12.68-7,9.5,0,16.06,5.83,16.06,15.7V61.2H240.7V40.75c0-8.07-5-12.39-12.68-12.31-7.34.07-12.45,5.61-12.45,13V61.2H212V25.63Z" transform="translate(-4.61 -10.79)"/><path d="M279.72,56.23a18.2,18.2,0,0,1-13,5.33c-10,0-18.29-6.91-18.29-18.15s8-18.14,18.29-18.14a18.49,18.49,0,0,1,13,5.33l-2.3,2.23a15.08,15.08,0,0,0-10.66-4.25c-8.07,0-14.83,5.26-14.83,14.83s6.76,14.84,14.83,14.84a15.05,15.05,0,0,0,10.58-4.4Z" transform="translate(-4.61 -10.79)"/><path d="M282,43.41a17.89,17.89,0,0,1,18.07-18.36c10,0,18.94,6.12,17.57,20h-32c.72,8.35,7.13,13.18,14.47,13.18,4.68,0,10.16-1.87,12.82-5.4l2.52,2c-3.45,4.54-9.65,6.84-15.34,6.84C290.09,61.7,282,54.72,282,43.41ZM314.5,42c-.08-8.78-5.84-13.68-14.41-13.68-7.34,0-13.68,5-14.47,13.68Z" transform="translate(-4.61 -10.79)"/><path d="M339.55,34.05h29.52v3.53H339.55V57.46h31.83V61.2H335.73V10.79h34.78v3.68h-31Z" transform="translate(-4.61 -10.79)"/><path d="M379.87,25.63V32c2.73-4.89,7.7-6.91,12.67-7,9.51,0,16.06,5.83,16.06,15.7V61.2h-3.53V40.75c0-8.07-5-12.39-12.67-12.31-7.35.07-12.46,5.61-12.46,13V61.2h-3.53V25.63Z" transform="translate(-4.61 -10.79)"/><path d="M443.52,24.19l2.3,2-3.45,4c2.52,2.73,4.39,6.33,4.39,12.09a16.82,16.82,0,0,1-9.58,15.13c6.27,2.23,9.72,6.62,9.72,12.74,0,9.58-7.49,14.19-16.92,14.19S413.13,79.2,413.13,70.2h3.53c0,7.27,6.19,10.73,13.32,10.73s13.47-3.17,13.47-10.73S436.6,59.54,430,59.54c-10.3,0-16.7-7.7-16.7-17.21C413.28,31.24,420.76,25,430,25a18.07,18.07,0,0,1,10.08,3.24ZM416.8,42.33c0,7.35,5,13.68,13.18,13.68A13.64,13.64,0,0,0,443.3,42.33c0-9-6-13.82-13.32-13.82S416.8,33,416.8,42.33Z" transform="translate(-4.61 -10.79)"/><path d="M457.27,14c0,3.74-5.69,3.74-5.69,0S457.27,10.29,457.27,14Zm-4.68,11.44V61.2h3.53V25.48Z" transform="translate(-4.61 -10.79)"/><path d="M465.33,25.63V32c2.74-4.89,7.71-6.91,12.67-7,9.51,0,16.06,5.83,16.06,15.7V61.2h-3.53V40.75c0-8.07-5-12.39-12.67-12.31-7.34.07-12.46,5.61-12.46,13V61.2h-3.53V25.63Z" transform="translate(-4.61 -10.79)"/><path d="M498.38,43.41a17.88,17.88,0,0,1,18.07-18.36c10,0,18.94,6.12,17.57,20H502c.72,8.35,7.13,13.18,14.47,13.18,4.68,0,10.15-1.87,12.82-5.4l2.52,2c-3.46,4.54-9.65,6.84-15.34,6.84C506.44,61.7,498.38,54.72,498.38,43.41ZM530.85,42c-.07-8.78-5.83-13.68-14.4-13.68-7.34,0-13.68,5-14.47,13.68Z" transform="translate(-4.61 -10.79)"/><path d="M538.27,43.41a17.88,17.88,0,0,1,18.07-18.36c10,0,18.94,6.12,17.57,20h-32c.72,8.35,7.12,13.18,14.47,13.18,4.68,0,10.15-1.87,12.82-5.4l2.52,2c-3.46,4.54-9.65,6.84-15.34,6.84C546.33,61.7,538.27,54.72,538.27,43.41ZM570.74,42c-.07-8.78-5.83-13.68-14.4-13.68-7.35,0-13.68,5-14.47,13.68Z" transform="translate(-4.61 -10.79)"/><path d="M582,25.63l.15,6.33c2.23-4.82,7.27-6.69,11.8-6.69a13.93,13.93,0,0,1,7.64,2.09L600,30.24a11.37,11.37,0,0,0-6-1.66,11.81,11.81,0,0,0-11.73,11.88V61.2h-3.53V25.63Z" transform="translate(-4.61 -10.79)"/></svg>