<svg id="レイヤー_1" data-name="レイヤー 1" xmlns="http://www.w3.org/2000/svg" viewBox="0 0 428.25 83.38"><title>StrongPoint</title><path d="M3.35,61.2V10.87H37.76V20H12.38V33.76h24v8.79h-24V61.2Z"/><path d="M49.18,25.7V44.28c0,5.4,2.8,9.5,8.14,9.5,5.13,0,8.62-4.53,8.62-9.93V25.7h8.28V61.27H66.76l-.55-4.82c-3.49,3.6-6.7,5.33-11.42,5.33-8.07,0-14-6.41-14-17.43V25.7Z"/><path d="M92,15.69V25.77h9.3v7.56H91.93V48.67c0,3.38,1.78,5,4.38,5a9.1,9.1,0,0,0,4-1.08l2.33,7.49a17.76,17.76,0,0,1-6.91,1.51c-7.32.29-12.11-4.1-12.11-13V33.33H77.36V25.77h6.29V16.63Z"/><path d="M114.71,25.7V44.28c0,5.4,2.8,9.5,8.14,9.5,5.13,0,8.62-4.53,8.62-9.93V25.7h8.27V61.27h-7.45l-.55-4.82c-3.49,3.6-6.7,5.33-11.42,5.33-8.08,0-14-6.41-14-17.43V25.7Z"/><path d="M152.12,25.7l.62,4.1c2.6-4.39,6.09-5,9.51-5a12.4,12.4,0,0,1,8.68,3.39l-3.76,7.63a8.1,8.1,0,0,0-6-2.3c-4.38,0-8.41,2.44-8.41,9V61.2h-8.35V25.7Z"/><path d="M177.09,46.58c.54,4.39,4.17,7.56,10,7.56,3.08,0,7.12-1.22,9-3.31l5.34,5.55c-3.56,3.88-9.37,5.76-14.5,5.76-11.63,0-18.54-7.57-18.54-18.94,0-10.8,7-18.58,17.92-18.58,11.29,0,18.33,7.34,17,22Zm18.33-7.27c-.55-4.61-4-6.91-8.76-6.91-4.51,0-8.2,2.3-9.44,6.91Z"/><path d="M266.42,35.56c.2,12.75-7.18,25.64-23.94,25.64H223.67V10.79h18.81C258.89,10.79,266.21,23.11,266.42,35.56ZM232.63,52.05h9.85c10.87,0,15.18-8.35,15-16.56-.21-7.85-4.58-15.69-15-15.69h-9.85Z"/><path d="M277.5,46.58c.54,4.39,4.17,7.56,10.05,7.56,3.08,0,7.12-1.22,9-3.31l5.34,5.55c-3.56,3.88-9.38,5.76-14.5,5.76-11.63,0-18.54-7.57-18.54-18.94,0-10.8,7-18.58,17.92-18.58,11.29,0,18.33,7.34,17,22Zm18.33-7.27c-.55-4.61-4-6.91-8.76-6.91-4.51,0-8.21,2.3-9.44,6.91Z"/><path d="M329.55,35.13A11.08,11.08,0,0,0,321.2,32c-4,0-6.15,1.3-6.15,3.53s2,3.6,6.29,3.89c6.36.43,14.43,1.95,14.43,11.38,0,6.26-4.85,11.66-14.5,11.66-5.33,0-10.67-.93-15.59-6.33l4.1-6.27c2.39,2.81,7.87,4.9,11.63,5,3.15.07,6.09-1.66,6.09-4.25s-1.92-3.45-6.71-3.74c-6.36-.51-14-2.95-14-11s8.07-11.09,14.23-11.09c5.26,0,9.23,1.08,13.13,4.68Z"/><path d="M348.84,15.69a4.93,4.93,0,1,1-9.85,0A4.93,4.93,0,1,1,348.84,15.69Zm-9.1,9.87V61.2h8.34V25.56Z"/><path d="M380.71,22.1l6.16,4.9-3.76,5a15.65,15.65,0,0,1,3.55,10.51c0,4.39-1.57,10.58-7.11,13.25,5.61,3,7,7.2,7,11.74,0,9.79-7.12,15.84-16.9,15.84s-17.1-6.27-17.1-15.84h8.27c0,4.6,4,7.63,8.83,7.63s8.55-2.74,8.55-7.63-4.38-7.13-8.55-7.13c-10.54,0-17.1-6.77-17.1-17.86s7.66-18,17.1-18a13,13,0,0,1,7.73,2ZM360.8,42.55c0,6.19,4,9.86,8.83,9.86s8.75-3.74,8.75-9.86-4-10-8.75-10S360.8,36.36,360.8,42.55Z"/><path d="M415.46,61.2V42.62c0-5.4-2.81-9.5-8.14-9.5-5.13,0-8.62,4.53-8.62,9.93V61.2h-8.28V25.63h7.46l.54,4.82c3.43-3.53,6.85-5.33,11.09-5.33,7.93,0,14.29,6.27,14.29,17.43V61.2Z"/></svg>