<svg id="レイヤー_1" data-name="レイヤー 1" xmlns="http://www.w3.org/2000/svg" viewBox="0 0 410.97 84.38"><title>_</title><path d="M48.6,16.41,29.31,45.93H28L8.57,16.41V61.2H4.68V10.79H9.29l19.3,29.38L47.67,10.79h4.75V61.2H48.6Z"/><path d="M92.74,25.63V61.2H89.21V53.64a16.64,16.64,0,0,1-14.54,8.14c-9.94,0-18.08-7.49-18.08-18.37S64.73,25.2,74.67,25.2c5.76,0,11.59,2.66,14.54,8.2V25.63ZM60.12,43.41c0,8.93,6.48,14.91,14.55,14.91,19.8,0,19.8-29.74,0-29.74C66.6,28.58,60.12,34.48,60.12,43.41Z"/><path d="M101.45,25.63V32c2.73-4.89,7.7-6.91,12.67-7,9.51,0,16.06,5.83,16.06,15.7V61.2h-3.53V40.75c0-8.07-5-12.39-12.67-12.31-7.35.07-12.46,5.61-12.46,13V61.2H98V25.63Z"/><path d="M170.71,25.63V61.2h-3.52V53.64a16.66,16.66,0,0,1-14.55,8.14c-9.94,0-18.07-7.49-18.07-18.37S142.7,25.2,152.64,25.2c5.76,0,11.59,2.66,14.55,8.2V25.63ZM138.1,43.41c0,8.93,6.48,14.91,14.54,14.91,19.8,0,19.8-29.74,0-29.74C144.58,28.58,138.1,34.48,138.1,43.41Z"/><path d="M204.55,24.19l2.31,2-3.46,4c2.52,2.73,4.39,6.33,4.39,12.09a16.83,16.83,0,0,1-9.57,15.13c6.26,2.23,9.72,6.62,9.72,12.74,0,9.58-7.49,14.19-16.92,14.19S174.17,79.2,174.17,70.2h3.52c0,7.27,6.2,10.73,13.33,10.73s13.46-3.17,13.46-10.73S197.64,59.54,191,59.54c-10.3,0-16.71-7.7-16.71-17.21C174.31,31.24,181.8,25,191,25a18.1,18.1,0,0,1,10.08,3.24ZM177.84,42.33c0,7.35,5,13.68,13.18,13.68,7.34,0,13.32-6.33,13.32-13.68,0-9-6-13.82-13.32-13.82S177.84,33,177.84,42.33Z"/><path d="M211.6,43.41a17.89,17.89,0,0,1,18.08-18.36c10,0,18.94,6.12,17.57,20h-32c.72,8.35,7.12,13.18,14.47,13.18,4.68,0,10.15-1.87,12.82-5.4l2.52,2c-3.46,4.54-9.65,6.84-15.34,6.84C219.67,61.7,211.6,54.72,211.6,43.41ZM244.08,42c-.07-8.78-5.83-13.68-14.4-13.68-7.35,0-13.68,5-14.47,13.68Z"/><path d="M303.34,61.2V39.89c0-6.85-4.61-11.67-11.38-11.67s-11.45,5-11.45,11.88V61.2H277V40.1c0-6.84-4.68-11.81-11.45-11.81s-11.37,5-11.37,11.81V61.2h-3.53V25.63h3.31l.07,5.9c2.45-4.68,7-6.62,11.6-6.62,5.4,0,11.08,2.45,13.17,8.78A13.75,13.75,0,0,1,292,24.91c8.71,0,14.91,6.12,14.91,15V61.2Z"/><path d="M310.46,43.41a17.88,17.88,0,0,1,18.07-18.36c10,0,18.94,6.12,17.57,20h-32c.72,8.35,7.13,13.18,14.47,13.18,4.68,0,10.16-1.87,12.82-5.4l2.52,2c-3.46,4.54-9.65,6.84-15.34,6.84C318.52,61.7,310.46,54.72,310.46,43.41ZM342.93,42c-.07-8.78-5.83-13.68-14.4-13.68-7.34,0-13.68,5-14.47,13.68Z"/><path d="M354.38,25.63V32c2.74-4.89,7.7-6.91,12.67-7,9.51,0,16.06,5.83,16.06,15.7V61.2h-3.53V40.75c0-8.07-5-12.39-12.67-12.31-7.35.07-12.46,5.61-12.46,13V61.2h-3.53V25.63Z"/><path d="M394.7,14.9V25.63h12.1v2.95H394.7V50.25c0,4.83,1,8.21,6.55,8.21A13.09,13.09,0,0,0,406.72,57L408,59.9a15.56,15.56,0,0,1-6.7,1.8c-7.56,0-10-4.46-10-11.45V28.58h-7.56V25.63h7.56V15.26Z"/></svg>