<svg xmlns="http://www.w3.org/2000/svg" viewBox="0 0 266.4 84.38"><title>_</title><g id="レイヤー_3" data-name="レイヤー 3"><path d="M8.5,43.77V61.2H4.61V10.8h22.1c21.89,0,21.89,33,0,33Zm0-29.37V40.25H26.71c16.78,0,16.78-25.85,0-25.85Z"/><path d="M50,25.63,50.18,32c2.24-4.83,7.28-6.7,11.81-6.7a13.87,13.87,0,0,1,7.63,2.09L68,30.24A11.37,11.37,0,0,0,62,28.58,11.81,11.81,0,0,0,50.26,40.46V61.2H46.73V25.63Z"/><path d="M67.54,43.49C67.54,32.18,75.6,25,85.61,25s18.07,7.2,18.07,18.51S95.62,61.7,85.61,61.7,67.54,54.79,67.54,43.49Zm32.69,0c0-9.22-6.56-15.2-14.62-15.2S71,34.27,71,43.49s6.55,14.76,14.62,14.76S100.23,52.7,100.23,43.49Z"/><path d="M136.08,24.19l2.3,2-3.45,4c2.52,2.73,4.39,6.33,4.39,12.09a16.82,16.82,0,0,1-9.58,15.13c6.27,2.23,9.72,6.62,9.72,12.74,0,9.58-7.48,14.19-16.92,14.19S105.69,79.2,105.69,70.2h3.53c0,7.27,6.2,10.73,13.32,10.73S136,77.76,136,70.2s-6.84-10.66-13.47-10.66c-10.29,0-16.7-7.7-16.7-17.21,0-11.09,7.49-17.35,16.7-17.35a18.07,18.07,0,0,1,10.08,3.24ZM109.37,42.33c0,7.35,5,13.68,13.17,13.68a13.65,13.65,0,0,0,13.33-13.68c0-9-6-13.82-13.33-13.82S109.37,33.05,109.37,42.33Z"/><path d="M147,25.63l.15,6.34c2.23-4.83,7.27-6.7,11.81-6.7a13.92,13.92,0,0,1,7.63,2.09L165,30.24a11.36,11.36,0,0,0-6-1.66,11.81,11.81,0,0,0-11.74,11.88V61.2h-3.53V25.63Z"/><path d="M198.94,25.63V61.2h-3.53V53.64a16.66,16.66,0,0,1-14.55,8.14c-9.93,0-18.07-7.49-18.07-18.37s8.14-18.21,18.07-18.21c5.76,0,11.6,2.66,14.55,8.2V25.63ZM166.32,43.41c0,8.93,6.48,14.91,14.54,14.91,19.81,0,19.81-29.74,0-29.74C172.8,28.58,166.32,34.48,166.32,43.41Z"/><path d="M256.9,61.2V39.89c0-6.84-4.61-11.67-11.38-11.67s-11.45,5-11.45,11.88V61.2h-3.53V40.1c0-6.84-4.68-11.81-11.45-11.81s-11.37,5-11.37,11.81V61.2h-3.53V25.63h3.31l.07,5.9c2.45-4.68,7-6.62,11.6-6.62,5.4,0,11.09,2.45,13.17,8.78a13.75,13.75,0,0,1,13.18-8.78c8.71,0,14.91,6.12,14.91,15V61.2Z"/></g></svg>