<svg id="レイヤー_1" data-name="レイヤー 1" xmlns="http://www.w3.org/2000/svg" viewBox="0 0 578.73 65.96"><title>SystemDeveloper</title><path d="M35.93,10.44c-3.67-5.9-9.58-6.77-15.26-6.84C14.76,3.6,5.4,5.76,5.4,13.83c0,6.4,6.91,7.92,15.41,9.5,9.72,1.87,19.8,3.6,19.8,14.47-.07,11.38-11.52,14.12-19.94,14.12C12.82,51.92,3.89,48.68,0,41l3.46-1.73c3.09,6.12,11,9.15,17.21,9.15s16-1.73,16-10.66c.07-7.56-8.28-9.22-16.56-10.8-9.22-1.8-18.65-3.67-18.65-13C1.3,3.31,12.39,0,20.67,0c7.2,0,13.46,1.15,18.43,8.57Z"/><path d="M77.11,15.55,55.44,66H51.7l6.55-15.27L44,15.55h3.82l8.28,21,4.18,10.3,4.1-10.37,8.93-21Z"/><path d="M106.92,22c-3.6-3.16-7.13-3.74-11.09-3.74-5.54-.07-10.87,2-10.73,6.55.15,4.75,6.34,5.69,10.81,6.48,6.33,1.08,15,2.16,14.68,10.44-.21,7.85-8.35,9.94-14.61,9.94s-12.46-2.38-15.56-7.13l2.6-2.3c3,4.25,8.28,6,13,6,4.32,0,10.87-1.16,11.09-6.77.14-5.11-5.76-6.12-11.6-7.06C88.63,33.34,81.79,32,81.72,24.91s6.91-10,14.11-9.93c5.19,0,9.72,1.44,13.25,4.75Z"/><path d="M125.14,4.82V15.55h12.09v3H125.14V40.18c0,4.82,1,8.21,6.55,8.21A13.24,13.24,0,0,0,137.16,47l1.22,2.88a15.52,15.52,0,0,1-6.69,1.8c-7.56,0-10-4.47-10-11.45V18.51h-7.56v-3h7.56V5.18Z"/><path d="M141.91,33.34A17.88,17.88,0,0,1,160,15c10,0,18.93,6.12,17.56,20h-32c.72,8.35,7.13,13.17,14.48,13.17,4.68,0,10.15-1.87,12.81-5.4l2.52,2c-3.45,4.53-9.65,6.84-15.33,6.84C150,51.63,141.91,44.64,141.91,33.34Zm32.48-1.44c-.08-8.79-5.84-13.68-14.4-13.68-7.35,0-13.69,5-14.48,13.68Z"/><path d="M236.52,51.12V29.81c0-6.84-4.6-11.66-11.37-11.66S213.7,23.19,213.7,30V51.12h-3.53V30c0-6.84-4.68-11.81-11.45-11.81s-11.38,5-11.38,11.81V51.12h-3.52V15.55h3.31l.07,5.91c2.45-4.68,7-6.63,11.59-6.63,5.4,0,11.09,2.45,13.18,8.79a13.75,13.75,0,0,1,13.18-8.79c8.71,0,14.9,6.12,14.9,15V51.12Z"/><path d="M301.18,25.35c.29,12.81-7.92,25.77-25.56,25.77H258.55V.72h17.07C292.68.72,300.89,13,301.18,25.35Zm-38.74-21v43h13.18c15,0,21.89-11.23,21.67-22-.22-10.52-7.13-21-21.67-21Z"/><path d="M305.85,33.34A17.88,17.88,0,0,1,323.93,15c10,0,18.94,6.12,17.57,20h-32c.71,8.35,7.12,13.17,14.47,13.17,4.68,0,10.15-1.87,12.82-5.4l2.52,2c-3.46,4.53-9.65,6.84-15.34,6.84C313.92,51.63,305.85,44.64,305.85,33.34Zm32.48-1.44c-.07-8.79-5.83-13.68-14.4-13.68-7.35,0-13.68,5-14.47,13.68Z"/><path d="M342.93,15.55h3.89l13,31.47,13-31.47h3.89l-14.9,35.57h-3.89Z"/><path d="M379,33.34A17.88,17.88,0,0,1,397.08,15c10,0,18.94,6.12,17.57,20h-32c.72,8.35,7.12,13.17,14.47,13.17,4.68,0,10.15-1.87,12.82-5.4l2.52,2c-3.46,4.53-9.65,6.84-15.34,6.84C387.07,51.63,379,44.64,379,33.34Zm32.48-1.44c-.07-8.79-5.83-13.68-14.4-13.68-7.35,0-13.68,5-14.47,13.68Z"/><path d="M424.44.72v50.4h-3.53V.72Z"/><path d="M429.76,33.41c0-11.3,8.07-18.5,18.08-18.5s18.07,7.2,18.07,18.5-8.06,18.22-18.07,18.22S429.76,44.72,429.76,33.41Zm32.7,0c0-9.22-6.56-15.19-14.62-15.19s-14.62,6-14.62,15.19,6.55,14.76,14.62,14.76S462.46,42.63,462.46,33.41Z"/><path d="M471.16,66V15.55h3.46V24A17,17,0,0,1,490,15.05c9.65.36,17.28,6.84,17.28,18.29,0,11.95-8.06,18.43-18.07,18.43a16.05,16.05,0,0,1-14.69-8.85V66Zm32.62-32.62c0-10-6.48-14.91-14.54-14.91-8.28,0-14.4,6.27-14.4,15s6.26,15,14.4,15S503.78,43.35,503.78,33.34Z"/><path d="M512.49,33.34A17.88,17.88,0,0,1,530.56,15c10,0,18.94,6.12,17.57,20h-32c.72,8.35,7.13,13.17,14.47,13.17,4.69,0,10.16-1.87,12.82-5.4l2.52,2c-3.45,4.53-9.65,6.84-15.34,6.84C520.56,51.63,512.49,44.64,512.49,33.34ZM545,31.9c-.08-8.79-5.84-13.68-14.41-13.68-7.34,0-13.68,5-14.47,13.68Z"/><path d="M559.15,15.55l.14,6.34c2.23-4.82,7.27-6.7,11.81-6.7a13.89,13.89,0,0,1,7.63,2.09l-1.58,2.88a11.45,11.45,0,0,0-6-1.65,11.82,11.82,0,0,0-11.74,11.88V51.12h-3.53V15.55Z"/></svg>