<svg xmlns="http://www.w3.org/2000/svg" viewBox="0 0 443.51 84.38"><title>_</title><g id="レイヤー_2" data-name="レイヤー 2"><path d="M37.3,20.52c-3.67-5.91-9.58-6.77-15.27-6.84-5.9,0-15.26,2.16-15.26,10.22,0,6.41,6.91,7.92,15.41,9.5C31.9,35.28,42,37,42,47.88,41.91,59.25,30.46,62,22,62,14.18,62,5.26,58.75,1.37,51.05l3.45-1.73c3.1,6.12,11,9.14,17.21,9.14s16.06-1.73,16.06-10.65c.07-7.56-8.28-9.22-16.56-10.8-9.22-1.8-18.65-3.68-18.65-13-.22-10.65,10.87-14,19.15-14,7.2,0,13.47,1.16,18.44,8.57Z"/><path d="M75.6,25.63,53.93,76H50.18l6.56-15.26L42.48,25.63H46.3l8.28,21L58.75,57l4.11-10.37,8.93-20.95Z"/><path d="M102.53,32.11c-3.6-3.17-7.13-3.75-11.09-3.75-5.54-.07-10.87,2-10.73,6.56.15,4.75,6.34,5.69,10.8,6.48,6.34,1.08,15,2.16,14.69,10.44-.21,7.85-8.35,9.94-14.62,9.94S79.13,59.4,76,54.65l2.59-2.31c3,4.25,8.28,6,13,6,4.32,0,10.87-1.15,11.09-6.77.14-5.11-5.76-6.12-11.6-7C84.24,43.41,77.4,42.12,77.33,35s6.91-10,14.11-9.94c5.18,0,9.72,1.44,13.25,4.76Z"/><path d="M117.86,14.9V25.63H130v2.95h-12.1V50.25c0,4.83,1,8.21,6.56,8.21A13.12,13.12,0,0,0,129.89,57l1.22,2.88a15.52,15.52,0,0,1-6.69,1.8c-7.56,0-10-4.46-10-11.45V28.58h-7.56V25.63h7.56V15.26Z"/><path d="M130.32,43.41a17.88,17.88,0,0,1,18.07-18.36c10,0,18.94,6.12,17.57,20h-32c.72,8.35,7.13,13.18,14.47,13.18,4.68,0,10.16-1.87,12.82-5.4l2.52,2c-3.46,4.54-9.65,6.84-15.34,6.84C138.38,61.7,130.32,54.72,130.32,43.41ZM162.79,42c-.07-8.78-5.83-13.68-14.4-13.68-7.34,0-13.68,5-14.47,13.68Z"/><path d="M223.49,61.2V39.89c0-6.84-4.61-11.67-11.38-11.67s-11.44,5-11.44,11.88V61.2h-3.53V40.1c0-6.84-4.68-11.81-11.45-11.81s-11.38,5-11.38,11.81V61.2h-3.53V25.63h3.31l.08,5.9c2.45-4.68,7-6.62,11.59-6.62,5.4,0,11.09,2.45,13.18,8.78a13.74,13.74,0,0,1,13.17-8.78c8.72,0,14.91,6.12,14.91,15V61.2Z"/><path d="M286.71,35.42c.28,12.82-7.93,25.78-25.57,25.78H244.08V10.8h17.06C278.21,10.8,286.42,23,286.71,35.42ZM248,14.47v43h13.17c15,0,21.89-11.24,21.68-22-.22-10.51-7.13-21-21.68-21Z"/><path d="M288.5,43.41a17.89,17.89,0,0,1,18.07-18.36c10,0,18.94,6.12,17.57,20h-32c.72,8.35,7.13,13.18,14.47,13.18,4.68,0,10.16-1.87,12.82-5.4l2.52,2c-3.45,4.54-9.65,6.84-15.34,6.84C296.57,61.7,288.5,54.72,288.5,43.41ZM321,42c-.08-8.78-5.84-13.68-14.41-13.68-7.34,0-13.68,5-14.47,13.68Z"/><path d="M351.93,32.11c-3.6-3.17-7.12-3.75-11.08-3.75-5.55-.07-10.88,2-10.73,6.56.14,4.75,6.33,5.69,10.8,6.48,6.33,1.08,15.05,2.16,14.69,10.44-.22,7.85-8.36,9.94-14.62,9.94s-12.46-2.38-15.55-7.13L328,52.34c3,4.25,8.28,6,13,6,4.32,0,10.87-1.15,11.09-6.77.14-5.11-5.76-6.12-11.59-7-6.91-1.16-13.76-2.45-13.83-9.58s6.92-10,14.12-9.94c5.18,0,9.72,1.44,13.24,4.76Z"/><path d="M365.25,14c0,3.74-5.69,3.74-5.69,0S365.25,10.29,365.25,14Zm-4.68,11.44V61.2h3.53V25.48Z"/><path d="M398.45,24.19l2.3,2-3.46,4c2.52,2.73,4.4,6.33,4.4,12.09a16.84,16.84,0,0,1-9.58,15.13c6.26,2.23,9.72,6.62,9.72,12.74,0,9.58-7.49,14.19-16.92,14.19S368.06,79.2,368.06,70.2h3.53c0,7.27,6.19,10.73,13.32,10.73s13.46-3.17,13.46-10.73-6.84-10.66-13.46-10.66c-10.3,0-16.71-7.7-16.71-17.21,0-11.09,7.49-17.35,16.71-17.35A18.1,18.1,0,0,1,395,28.22ZM371.73,42.33c0,7.35,5,13.68,13.18,13.68,7.34,0,13.32-6.33,13.32-13.68,0-9-6-13.82-13.32-13.82S371.73,33.05,371.73,42.33Z"/><path d="M409.53,25.63V32c2.74-4.9,7.71-6.92,12.68-7,9.5,0,16.05,5.83,16.05,15.7V61.2h-3.53V40.75c0-8.07-5-12.39-12.67-12.31-7.34.07-12.46,5.61-12.46,13V61.2h-3.52V25.63Z"/></g></svg>