<svg xmlns="http://www.w3.org/2000/svg" viewBox="0 0 350.66 51.72"><title>WorkDetail</title><g id="レイヤー_2" data-name="レイヤー 2"><path d="M49,50.64H42.11L36.78,34.8,32.25,18.88,27.79,34.94l-5.21,15.7H15.73L0,.23H9.06L19.16,36.6,29.56.23h5.26L45.53,36.6,55.33.23h9.06Z"/><path d="M98.38,32.93c0,10.22-7,18.5-18.5,18.5s-18.44-8.28-18.44-18.5S68.5,14.42,79.81,14.42,98.38,22.77,98.38,32.93Zm-28.15,0c0,5.4,3.24,10.44,9.65,10.44s9.65-5,9.65-10.44-3.75-10.52-9.65-10.52C73.54,22.41,70.23,27.6,70.23,32.93Z"/><path d="M111.12,15.14l.65,4.1c2.74-4.39,6.41-5,10-5a13.43,13.43,0,0,1,9.14,3.39l-4,7.63a8.75,8.75,0,0,0-6.33-2.3c-4.61,0-8.86,2.44-8.86,9V50.64H103V15.14Z"/><path d="M142.8.31V29.4l12-14.26h10.51v.5l-14.48,16.2L167.28,50v.65H156.7L142.8,34.58V50.64H134V.31Z"/><path d="M225.1,25c.22,12.75-7.56,25.64-25.2,25.64H180.1V.23h19.8C217.18.23,224.89,12.55,225.1,25ZM189.53,41.49H199.9c11.45,0,16-8.35,15.77-16.56-.22-7.85-4.83-15.7-15.77-15.7H189.53Z"/><path d="M235.32,36c.58,4.39,4.39,7.56,10.59,7.56,3.24,0,7.49-1.22,9.5-3.31L261,45.81c-3.75,3.89-9.87,5.76-15.27,5.76-12.24,0-19.51-7.56-19.51-18.93,0-10.8,7.34-18.58,18.87-18.58,11.88,0,19.29,7.34,17.92,22Zm19.3-7.27c-.58-4.61-4.18-6.91-9.22-6.91-4.75,0-8.64,2.3-9.93,6.91Z"/><path d="M277.87,5.13V15.21h9.8v7.56H277.8V38.11c0,3.38,1.87,5,4.61,5a10,10,0,0,0,4.25-1.08l2.45,7.49a19.56,19.56,0,0,1-7.28,1.51c-7.7.29-12.74-4.1-12.74-13V22.77h-6.63V15.21h6.63V6.07Z"/><path d="M318.05,15.14h8.42v35.5h-8.28l-.43-5.19c-2,4.18-7.56,6.2-11.52,6.27C295.73,51.79,288,45.31,288,32.85c0-12.24,8.14-18.65,18.51-18.57,4.75,0,9.29,2.23,11.3,5.76ZM296.74,32.85c0,6.77,4.68,10.8,10.51,10.8,13.82,0,13.82-21.53,0-21.53C301.42,22.12,296.74,26.08,296.74,32.85Z"/><path d="M339.14,5.13c0,6.84-10.37,6.84-10.37,0S339.14-1.71,339.14,5.13ZM329.57,15V50.64h8.78V15Z"/><path d="M350.66.31V50.64H342V.31Z"/></g></svg>