<svg id="レイヤー_1" data-name="レイヤー 1" xmlns="http://www.w3.org/2000/svg" viewBox="0 0 167.28 51.2"><title>Work</title><path d="M49,50.4H42.11L36.78,34.56,32.25,18.65,27.79,34.71,22.58,50.4H15.73L0,0H9.06l10.1,36.36L29.56,0h5.26L45.53,36.36,55.33,0h9.06Z"/><path d="M98.38,32.69c0,10.23-7,18.51-18.5,18.51S61.44,42.92,61.44,32.69s7.06-18.5,18.37-18.5S98.38,22.54,98.38,32.69Zm-28.15,0c0,5.4,3.24,10.44,9.65,10.44s9.65-5,9.65-10.44-3.75-10.51-9.65-10.51C73.54,22.18,70.23,27.36,70.23,32.69Z"/><path d="M111.12,14.91l.65,4.1c2.74-4.39,6.41-5,10-5a13.47,13.47,0,0,1,9.14,3.38L127,25a8.71,8.71,0,0,0-6.33-2.31c-4.61,0-8.86,2.45-8.86,9V50.4H103V14.91Z"/><path d="M142.8.07V29.16l12-14.25h10.51v.5l-14.48,16.2,16.49,18.15v.64H156.7l-13.9-16v16H134V.07Z"/></svg>